<?xml version="1.0" standalone="no"?>
<!DOCTYPE svg PUBLIC "-//W3C//DTD SVG 20010904//EN"
 "http://www.w3.org/TR/2001/REC-SVG-20010904/DTD/svg10.dtd">
<svg version="1.0" xmlns="http://www.w3.org/2000/svg"
 width="875.000000pt" height="392.000000pt" viewBox="0 0 875.000000 392.000000"
 preserveAspectRatio="xMidYMid meet">

<g transform="translate(0.000000,392.000000) scale(0.100000,-0.100000)"
fill="#000000" stroke="none">
<path d="M6105 3415 c-93 -28 -137 -68 -232 -210 -34 -49 -83 -119 -111 -155
-50 -64 -51 -65 -26 -68 13 -2 22 -8 19 -13 -4 -5 13 -9 37 -9 24 0 59 -8 78
-19 19 -10 55 -22 79 -26 30 -5 39 -10 30 -16 -10 -6 -7 -9 11 -9 30 -1 105
-33 115 -51 6 -8 4 -10 -6 -4 -10 5 -11 5 -4 -3 21 -21 85 -51 100 -46 13 5
17 0 14 -22 0 -7 25 -23 96 -59 33 -16 43 -25 30 -26 -11 0 3 -6 30 -13 28 -7
57 -15 65 -17 10 -3 16 7 20 33 5 33 7 35 23 23 16 -11 16 -16 5 -34 -7 -12
-16 -21 -20 -21 -5 0 -8 -4 -8 -10 0 -5 7 -10 15 -10 8 0 15 -8 15 -17 0 -10
7 -31 15 -46 9 -18 10 -25 2 -20 -6 4 -2 -5 10 -20 12 -16 21 -42 21 -64 0
-21 5 -51 11 -66 6 -16 11 -40 11 -55 1 -24 2 -25 11 -9 6 10 8 21 6 24 -8 7
16 32 25 26 4 -2 5 3 2 11 -3 9 -11 16 -18 17 -6 0 -1 4 12 9 12 5 22 17 22
27 0 15 -2 16 -10 3 -5 -8 -10 -11 -10 -6 0 22 47 77 75 86 17 6 38 22 47 38
21 36 31 82 18 82 -5 0 -10 -5 -10 -12 0 -6 -3 -8 -6 -5 -4 4 -2 13 5 21 9 11
7 20 -14 42 -15 17 -23 22 -19 12 3 -10 10 -18 14 -18 4 0 11 -7 14 -16 5 -14
4 -15 -9 -4 -13 11 -15 7 -17 -26 0 -22 -1 -44 -1 -50 0 -7 -17 -17 -38 -24
-33 -11 -42 -11 -63 3 -14 9 -33 14 -43 11 -15 -5 -16 -4 -3 6 11 9 12 13 3
17 -7 2 -13 13 -13 24 0 14 7 19 29 19 30 0 46 21 29 38 -7 7 -6 17 2 32 10
18 9 21 -6 18 -13 -2 -18 5 -21 32 -2 19 -22 94 -45 165 -59 189 -111 286
-212 393 -83 88 -130 109 -201 87z m-45 -30 c0 -2 -11 -14 -24 -27 -13 -13
-41 -57 -62 -98 -44 -88 -42 -85 -50 -77 -4 4 1 18 10 32 9 14 14 25 11 25 -6
0 -55 -77 -55 -87 0 -4 7 2 15 13 23 30 17 6 -7 -29 -27 -40 -78 -92 -78 -81
0 5 11 21 25 36 14 15 25 32 25 38 0 5 3 10 8 10 4 0 8 11 8 25 2 33 76 145
125 190 37 33 49 41 49 30z m-243 -401 c-3 -3 -12 -4 -19 -1 -8 3 -5 6 6 6 11
1 17 -2 13 -5z m757 -540 c5 -14 4 -15 -9 -4 -17 14 -19 20 -6 20 5 0 12 -7
15 -16z"/>
<path d="M5635 2990 c4 -6 11 -8 16 -5 14 9 11 15 -7 15 -8 0 -12 -5 -9 -10z"/>
<path d="M5544 2966 c-10 -8 -19 -20 -19 -28 -1 -7 -7 -11 -15 -10 -8 2 -12 0
-8 -4 4 -4 2 -14 -4 -23 -7 -9 0 -5 14 8 15 13 25 28 22 33 -3 4 10 15 28 23
18 8 26 14 17 15 -8 0 -24 -6 -35 -14z"/>
<path d="M5459 2803 c-13 -16 -12 -17 4 -4 16 13 21 21 13 21 -2 0 -10 -8 -17
-17z"/>
<path d="M5459 2773 c-13 -16 -12 -17 4 -4 16 13 21 21 13 21 -2 0 -10 -8 -17
-17z"/>
<path d="M6620 2740 c0 -5 5 -10 11 -10 5 0 7 5 4 10 -3 6 -8 10 -11 10 -2 0
-4 -4 -4 -10z"/>
<path d="M5436 2708 c3 -4 9 -8 15 -8 5 0 9 4 9 8 0 5 -7 9 -15 9 -8 0 -12 -4
-9 -9z"/>
<path d="M5550 2591 c0 -6 5 -13 12 -17 6 -4 8 -3 4 4 -3 6 3 12 16 15 20 4
19 4 -4 6 -16 0 -28 -3 -28 -8z"/>
<path d="M5748 2539 c7 -9 22 -19 33 -22 17 -5 18 -3 8 9 -6 8 -14 12 -17 9
-3 -3 -12 1 -21 8 -14 10 -14 10 -3 -4z"/>
<path d="M5875 2460 c10 -11 20 -20 23 -20 3 0 -3 9 -13 20 -10 11 -20 20 -23
20 -3 0 3 -9 13 -20z"/>
<path d="M5944 2418 c-4 -7 -3 -8 4 -4 7 4 12 3 12 -2 0 -5 9 -12 20 -15 26
-7 25 -3 -4 17 -18 11 -27 13 -32 4z"/>
<path d="M6044 2375 c11 -8 25 -15 30 -15 6 0 2 7 -8 15 -11 8 -25 15 -30 15
-6 0 -2 -7 8 -15z"/>
<path d="M6517 2363 c-4 -7 -17 -10 -29 -8 -11 3 -18 1 -14 -2 15 -15 -81 -46
-146 -47 -36 -1 -70 -5 -75 -9 -4 -5 5 -5 21 -1 22 5 27 4 21 -6 -5 -8 -2 -11
11 -7 11 3 51 7 89 9 39 2 73 8 77 13 4 6 8 2 8 -7 0 -20 17 -23 40 -7 11 8 9
9 -10 3 -22 -6 -23 -5 -12 9 8 9 11 21 7 27 -11 18 3 11 26 -12 12 -13 19 -17
14 -10 -4 8 -10 25 -14 40 -4 16 -10 22 -14 15z"/>
<path d="M6104 2346 c11 -9 24 -16 30 -16 12 0 7 5 -24 19 -24 11 -24 11 -6
-3z"/>
<path d="M6230 2330 c-9 -6 -10 -10 -3 -10 6 0 15 5 18 10 8 12 4 12 -15 0z"/>
<path d="M6328 2273 c6 -2 18 -2 25 0 6 3 1 5 -13 5 -14 0 -19 -2 -12 -5z"/>
<path d="M6416 2272 c-3 -5 8 -6 25 -4 16 2 29 6 29 8 0 8 -49 4 -54 -4z"/>
</g>
</svg>
